<svg width="110" height="27" viewBox="0 0 110 27" fill="none" xmlns="http://www.w3.org/2000/svg">
<path d="M20.46 6.83C20.46 7.93 20.18 8.98 19.62 9.98C19.08 10.98 18.34 11.86 17.4 12.62C16.48 13.36 15.39 13.95 14.13 14.39C12.89 14.83 11.57 15.05 10.17 15.05C9.67 15.05 9.27 14.99 8.97 14.87C8.69 14.73 8.37 14.47 8.01 14.09C7.01 16.27 6.19 18.28 5.55 20.12C4.93 21.94 4.44 23.71 4.08 25.43C3.32 25.25 2.7 24.93 2.22 24.47C1.74 24.03 1.3 23.47 0.9 22.79C1.1 22.41 1.34 21.91 1.62 21.29C1.9 20.67 2.24 19.91 2.64 19.01C3.04 18.09 3.5 17 4.02 15.74C4.56 14.46 5.19 12.97 5.91 11.27C6.23 10.49 6.51 9.81 6.75 9.23C6.99 8.65 7.2 8.11 7.38 7.61C7.56 7.09 7.72 6.58 7.86 6.08C8.02 5.58 8.18 5.03 8.34 4.43C7.4 4.73 6.53 5.08 5.73 5.48C4.95 5.88 4.3 6.3 3.78 6.74C3.6 6.62 3.41 6.44 3.21 6.2C3.03 5.96 2.86 5.7 2.7 5.42C2.54 5.12 2.4 4.82 2.28 4.52C2.16 4.22 2.09 3.95 2.07 3.71C2.65 3.31 3.37 2.94 4.23 2.6C5.09 2.26 6.01 1.97 6.99 1.73C7.97 1.47 8.98 1.27 10.02 1.13C11.08 0.989998 12.09 0.919998 13.05 0.919998C14.19 0.919998 15.22 1.07 16.14 1.37C17.06 1.65 17.84 2.05 18.48 2.57C19.12 3.09 19.61 3.71 19.95 4.43C20.29 5.15 20.46 5.95 20.46 6.83ZM15.12 3.23C14.36 3.23 13.58 3.29 12.78 3.41L13.14 3.95C12.94 4.21 12.69 4.6 12.39 5.12C12.09 5.64 11.76 6.27 11.4 7.01C11.04 7.73 10.64 8.54 10.2 9.44C9.78 10.34 9.33 11.29 8.85 12.29C10.41 12.29 11.83 12.15 13.11 11.87C14.39 11.57 15.48 11.17 16.38 10.67C17.3 10.15 18.01 9.55 18.51 8.87C19.03 8.19 19.29 7.46 19.29 6.68C19.29 5.64 18.94 4.81 18.24 4.19C17.54 3.55 16.5 3.23 15.12 3.23ZM22.2 24.05C21.06 23.93 20.15 23.43 19.47 22.55C18.79 21.67 18.45 20.55 18.45 19.19C18.45 18.39 18.57 17.56 18.81 16.7C19.05 15.84 19.39 15.01 19.83 14.21C20.27 13.39 20.79 12.62 21.39 11.9C21.99 11.18 22.64 10.56 23.34 10.04C24.44 9.22 25.47 8.81 26.43 8.81C27.07 9.15 27.7 9.86 28.32 10.94C28.42 10.94 28.51 10.94 28.59 10.94C28.67 10.92 28.76 10.91 28.86 10.91C29.92 10.91 30.45 11.85 30.45 13.73C30.45 14.99 30.24 16.19 29.82 17.33C29.42 18.45 28.85 19.47 28.11 20.39C27.39 21.31 26.52 22.09 25.5 22.73C24.5 23.35 23.4 23.79 22.2 24.05ZM23.73 14.6C23.39 15.06 23.07 15.56 22.77 16.1C22.47 16.64 22.21 17.19 21.99 17.75C21.77 18.29 21.6 18.82 21.48 19.34C21.36 19.84 21.3 20.29 21.3 20.69C21.3 21.17 21.38 21.63 21.54 22.07C21.7 22.51 21.88 22.76 22.08 22.82C22.98 22.62 23.8 22.25 24.54 21.71C25.3 21.15 25.95 20.46 26.49 19.64C27.05 18.82 27.48 17.89 27.78 16.85C28.1 15.81 28.26 14.7 28.26 13.52C28.26 13 28.23 12.59 28.17 12.29C28.11 11.99 28.01 11.73 27.87 11.51C26.99 11.77 26.2 12.19 25.5 12.77C24.82 13.35 24.23 13.96 23.73 14.6ZM42.2522 11.06C42.2322 11.44 42.1622 11.84 42.0422 12.26C41.9422 12.66 41.8122 13.03 41.6522 13.37C41.4922 13.69 41.3222 13.96 41.1422 14.18C40.9622 14.4 40.7922 14.51 40.6322 14.51C40.4122 14.49 40.2822 14.34 40.2422 14.06C40.2422 14 40.2622 13.91 40.3022 13.79C40.3622 13.65 40.4222 13.5 40.4822 13.34C40.5422 13.18 40.5922 13.02 40.6322 12.86C40.6922 12.7 40.7222 12.56 40.7222 12.44C40.7222 12.16 40.6522 11.93 40.5122 11.75C40.3922 11.55 40.2222 11.45 40.0022 11.45C39.2022 11.45 38.5922 11.95 38.1722 12.95C37.7522 13.95 37.5422 15.42 37.5422 17.36C37.5422 17.56 37.5522 17.68 37.5722 17.72C37.9922 17.7 38.3622 17.69 38.6822 17.69C39.0222 17.67 39.3522 17.66 39.6722 17.66C39.6922 17.7 39.7022 17.78 39.7022 17.9C39.7022 18.08 39.6622 18.21 39.5822 18.29C39.1222 18.39 38.7522 18.48 38.4722 18.56C38.2122 18.62 38.0122 18.68 37.8722 18.74C37.7322 18.8 37.6422 18.87 37.6022 18.95C37.5822 19.01 37.5722 19.1 37.5722 19.22C37.5722 19.38 37.5722 19.54 37.5722 19.7C37.5922 19.86 37.6022 20.06 37.6022 20.3C37.6022 21.98 37.1422 23.33 36.2222 24.35C35.3222 25.37 34.0622 25.96 32.4422 26.12C32.1622 26.1 31.8722 26.02 31.5722 25.88C31.2722 25.74 30.9822 25.56 30.7022 25.34C30.4422 25.12 30.2122 24.87 30.0122 24.59C29.8122 24.33 29.6722 24.06 29.5922 23.78C29.5922 23.02 29.7522 22.3 30.0722 21.62C30.3922 20.92 30.8222 20.31 31.3622 19.79C31.9222 19.25 32.5722 18.82 33.3122 18.5C34.0722 18.16 34.8922 17.96 35.7722 17.9C35.7722 17.4 35.7222 16.91 35.6222 16.43C35.5222 15.95 35.4122 15.49 35.2922 15.05C35.1922 14.59 35.0922 14.15 34.9922 13.73C34.8922 13.29 34.8422 12.86 34.8422 12.44C34.8422 11.9 34.9522 11.37 35.1722 10.85C35.3922 10.31 35.6822 9.82 36.0422 9.38C36.4022 8.92 36.8222 8.53 37.3022 8.21C37.7822 7.89 38.2822 7.67 38.8022 7.55C39.0222 7.61 39.3122 7.79 39.6722 8.09C40.0522 8.37 40.4222 8.69 40.7822 9.05C41.1422 9.41 41.4622 9.78 41.7422 10.16C42.0222 10.52 42.1922 10.82 42.2522 11.06ZM32.3522 24.74C32.8322 24.54 33.2822 24.25 33.7022 23.87C34.1422 23.49 34.5222 23.06 34.8422 22.58C35.1622 22.1 35.4122 21.59 35.5922 21.05C35.7922 20.51 35.8922 19.98 35.8922 19.46C35.4922 19.52 35.0522 19.71 34.5722 20.03C34.0922 20.33 33.6422 20.7 33.2222 21.14C32.8022 21.56 32.4522 22 32.1722 22.46C31.8922 22.92 31.7522 23.32 31.7522 23.66C31.7522 24.1 31.9522 24.46 32.3522 24.74ZM44.0433 11.51C43.9433 11.39 43.8533 11.14 43.7733 10.76C43.6933 10.36 43.6533 10.02 43.6533 9.74C44.1733 9.78 44.6733 9.82 45.1533 9.86C45.6333 9.88 46.0733 9.9 46.4733 9.92C46.7733 9.32 47.0933 8.73 47.4333 8.15C47.7933 7.55 48.1333 7.01 48.4533 6.53C48.7933 6.03 49.1033 5.61 49.3833 5.27C49.6833 4.93 49.9133 4.71 50.0733 4.61C50.2733 4.61 50.5233 4.65 50.8233 4.73C51.1433 4.79 51.4633 4.88 51.7833 5C52.1033 5.1 52.3933 5.21 52.6533 5.33C52.9133 5.45 53.0933 5.57 53.1933 5.69C52.5933 6.45 52.0733 7.16 51.6333 7.82C51.2133 8.46 50.7533 9.2 50.2533 10.04C50.6533 10.04 51.0533 10.03 51.4533 10.01C51.8733 9.99 52.2933 9.96 52.7133 9.92C52.8133 10.02 52.8933 10.15 52.9533 10.31C53.0133 10.45 53.0433 10.6 53.0433 10.76C52.0633 11.12 50.8733 11.32 49.4733 11.36C48.9733 12.32 48.5233 13.28 48.1233 14.24C47.7433 15.18 47.4133 16.09 47.1333 16.97C46.8733 17.85 46.6633 18.68 46.5033 19.46C46.3633 20.24 46.2933 20.94 46.2933 21.56C46.2933 22.44 46.6233 22.93 47.2833 23.03C47.8833 22.95 48.4533 22.8 48.9933 22.58C49.5333 22.36 50.0133 22.08 50.4333 21.74C50.5533 21.92 50.6233 22.07 50.6433 22.19C50.5233 22.37 50.3133 22.58 50.0133 22.82C49.7333 23.06 49.4233 23.29 49.0833 23.51C48.7433 23.75 48.4133 23.95 48.0933 24.11C47.7733 24.27 47.5333 24.36 47.3733 24.38C46.8733 24.36 46.3733 24.25 45.8733 24.05C45.3733 23.85 44.9133 23.6 44.4933 23.3C44.0933 23 43.7633 22.67 43.5033 22.31C43.2433 21.93 43.1133 21.56 43.1133 21.2C43.1133 20.72 43.1733 20.12 43.2933 19.4C43.4333 18.66 43.6233 17.86 43.8633 17C44.1033 16.14 44.3833 15.24 44.7033 14.3C45.0233 13.36 45.3733 12.43 45.7533 11.51H44.0433ZM65.3302 25.22C65.2902 25.24 65.2502 25.25 65.2102 25.25C65.1702 25.25 65.0902 25.25 64.9702 25.25C64.6902 25.25 64.3602 25.2 63.9802 25.1C63.6202 25.02 63.2602 24.91 62.9002 24.77C62.5602 24.65 62.2602 24.51 62.0002 24.35C61.7602 24.19 61.6102 24.05 61.5502 23.93C61.5302 23.65 61.5202 23.36 61.5202 23.06C61.5202 22.76 61.5202 22.47 61.5202 22.19C61.5202 19.95 61.6802 17.61 62.0002 15.17C62.3402 12.73 62.8902 10.09 63.6502 7.25C63.7302 6.97 63.8102 6.62 63.8902 6.2C63.9902 5.76 64.0902 5.29 64.1902 4.79C63.7102 5.17 63.1402 5.78 62.4802 6.62C61.8202 7.44 61.1202 8.42 60.3802 9.56C59.6602 10.68 58.9302 11.92 58.1902 13.28C57.4702 14.62 56.8102 15.99 56.2102 17.39C55.6102 18.77 55.0902 20.14 54.6502 21.5C54.2302 22.86 53.9702 24.12 53.8702 25.28C52.9102 25 52.2402 24.72 51.8602 24.44C51.5002 24.16 51.3202 23.82 51.3202 23.42C51.3202 23.06 51.4302 22.55 51.6502 21.89C51.8702 21.23 52.1802 20.45 52.5802 19.55C52.9802 18.65 53.4702 17.65 54.0502 16.55C54.6302 15.43 55.2702 14.23 55.9702 12.95C56.7702 11.49 57.5502 10.12 58.3102 8.84C59.0902 7.56 59.8502 6.4 60.5902 5.36C61.3302 4.32 62.0502 3.42 62.7502 2.66C63.4702 1.9 64.1802 1.32 64.8802 0.919998C65.1602 0.919998 65.5302 0.989998 65.9902 1.13C66.4702 1.27 66.9302 1.44 67.3702 1.64C67.8302 1.84 68.2302 2.05 68.5702 2.27C68.9302 2.47 69.1302 2.64 69.1702 2.78C68.8902 3.34 68.5602 4.18 68.1802 5.3C67.8002 6.42 67.4102 7.69 67.0102 9.11C66.6302 10.53 66.2602 12.04 65.9002 13.64C65.5602 15.22 65.2902 16.74 65.0902 18.2C65.5502 17.1 66.0802 15.96 66.6802 14.78C67.3002 13.58 67.9502 12.4 68.6302 11.24C69.3102 10.06 70.0002 8.92 70.7002 7.82C71.4202 6.72 72.1202 5.72 72.8002 4.82C73.4802 3.9 74.1102 3.1 74.6902 2.42C75.2902 1.74 75.8202 1.24 76.2802 0.919998C76.5602 0.919998 76.9302 0.989998 77.3902 1.13C77.8702 1.27 78.3302 1.44 78.7702 1.64C79.2302 1.84 79.6302 2.05 79.9702 2.27C80.3302 2.47 80.5302 2.64 80.5702 2.78C79.9302 3.92 79.3702 5.31 78.8902 6.95C78.4102 8.59 78.0002 10.31 77.6602 12.11C77.3402 13.91 77.0902 15.7 76.9102 17.48C76.7502 19.24 76.6702 20.82 76.6702 22.22C76.6702 22.68 76.6702 23.16 76.6702 23.66C76.6702 24.16 76.6902 24.68 76.7302 25.22C76.4502 25.22 76.1102 25.18 75.7102 25.1C75.3302 25.04 74.9502 24.95 74.5702 24.83C74.2102 24.71 73.8802 24.57 73.5802 24.41C73.2802 24.27 73.0702 24.11 72.9502 23.93C72.9302 23.65 72.9202 23.36 72.9202 23.06C72.9202 22.76 72.9202 22.47 72.9202 22.19C72.9202 19.95 73.0802 17.61 73.4002 15.17C73.7402 12.73 74.2902 10.09 75.0502 7.25C75.1302 6.97 75.2202 6.59 75.3202 6.11C75.4202 5.63 75.5202 5.13 75.6202 4.61C75.0602 4.89 74.4202 5.43 73.7002 6.23C73.0002 7.01 72.2802 7.97 71.5402 9.11C70.8202 10.23 70.1002 11.48 69.3802 12.86C68.6802 14.24 68.0402 15.65 67.4602 17.09C66.9002 18.51 66.4202 19.93 66.0202 21.35C65.6402 22.75 65.4102 24.04 65.3302 25.22ZM90.6799 10.88C90.8799 10.88 91.1099 10.92 91.3699 11C91.6499 11.06 91.8999 11.15 92.1199 11.27C92.3399 11.37 92.5199 11.48 92.6599 11.6C92.8199 11.72 92.8999 11.83 92.8999 11.93C92.4999 12.77 92.1299 13.62 91.7899 14.48C91.4499 15.32 91.1599 16.13 90.9199 16.91C90.6799 17.69 90.4899 18.42 90.3499 19.1C90.2299 19.78 90.1699 20.37 90.1699 20.87C90.1699 21.43 90.2299 21.9 90.3499 22.28C90.4699 22.64 90.6699 22.9 90.9499 23.06C90.7099 23.22 90.3999 23.35 90.0199 23.45C89.6399 23.55 89.2999 23.6 88.9999 23.6C87.9199 23.6 87.3799 22.86 87.3799 21.38C87.3799 20.24 87.7599 18.68 88.5199 16.7C88.1199 17.62 87.6599 18.49 87.1399 19.31C86.6199 20.11 86.0899 20.82 85.5499 21.44C85.0099 22.06 84.4599 22.57 83.8999 22.97C83.3599 23.35 82.8599 23.58 82.3999 23.66C81.6599 23.62 81.0599 23.27 80.5999 22.61C80.1399 21.93 79.9099 21.07 79.9099 20.03C79.9099 18.91 80.1499 17.73 80.6299 16.49C81.1099 15.25 81.7199 14.1 82.4599 13.04C83.2199 11.98 84.0399 11.1 84.9199 10.4C85.7999 9.68 86.6499 9.3 87.4699 9.26C87.6699 9.32 87.8899 9.44 88.1299 9.62C88.3899 9.8 88.6299 10.01 88.8499 10.25C89.0899 10.49 89.2899 10.74 89.4499 11C89.6099 11.24 89.6999 11.45 89.7199 11.63C88.9199 11.75 88.0899 12.14 87.2299 12.8C86.3899 13.46 85.6199 14.26 84.9199 15.2C84.2399 16.12 83.6799 17.11 83.2399 18.17C82.7999 19.23 82.5799 20.22 82.5799 21.14C82.5799 21.52 82.7199 21.76 82.9999 21.86C83.5799 21.74 84.2499 21.25 85.0099 20.39C85.7699 19.51 86.6899 18.16 87.7699 16.34C87.9699 15.98 88.1899 15.58 88.4299 15.14C88.6899 14.7 88.9499 14.24 89.2099 13.76C89.4699 13.28 89.7199 12.8 89.9599 12.32C90.2199 11.82 90.4599 11.34 90.6799 10.88ZM99.2817 8.45C99.8017 8.61 100.292 8.97 100.752 9.53C101.212 10.07 101.552 10.67 101.772 11.33C101.552 11.87 101.212 12.52 100.752 13.28C100.292 14.04 99.8317 14.82 99.3717 15.62C98.9117 16.4 98.4917 17.15 98.1117 17.87C97.7517 18.57 97.5417 19.15 97.4817 19.61C97.8017 19.27 98.1517 18.88 98.5317 18.44C98.9317 17.98 99.3117 17.53 99.6717 17.09C100.052 16.63 100.402 16.22 100.722 15.86C101.042 15.48 101.292 15.2 101.472 15.02C101.852 14.62 102.302 14.16 102.822 13.64C103.342 13.1 103.882 12.6 104.442 12.14C105.022 11.66 105.602 11.26 106.182 10.94C106.762 10.6 107.292 10.43 107.772 10.43C108.292 10.43 108.722 10.61 109.062 10.97C109.422 11.31 109.702 11.67 109.902 12.05C109.902 12.09 109.822 12.15 109.662 12.23C109.522 12.29 109.312 12.48 109.032 12.8C108.752 13.16 108.432 13.66 108.072 14.3C107.732 14.92 107.392 15.6 107.052 16.34C106.732 17.06 106.462 17.8 106.242 18.56C106.022 19.32 105.912 20.01 105.912 20.63C105.912 21.13 105.972 21.45 106.092 21.59C106.232 21.73 106.422 21.8 106.662 21.8C106.882 21.8 107.112 21.75 107.352 21.65C107.592 21.55 107.782 21.5 107.922 21.5C108.002 21.54 108.062 21.63 108.102 21.77C108.162 21.89 108.192 22 108.192 22.1C108.032 22.24 107.842 22.38 107.622 22.52C107.402 22.66 107.172 22.79 106.932 22.91C106.692 23.03 106.452 23.13 106.212 23.21C105.992 23.29 105.792 23.33 105.612 23.33C105.032 23.33 104.552 23.24 104.172 23.06C103.812 22.9 103.522 22.68 103.302 22.4C103.102 22.12 102.962 21.79 102.882 21.41C102.802 21.01 102.762 20.59 102.762 20.15C102.762 19.91 102.782 19.64 102.822 19.34C102.862 19.04 102.942 18.69 103.062 18.29C103.182 17.87 103.352 17.38 103.572 16.82C103.792 16.24 104.072 15.55 104.412 14.75C104.372 14.75 104.102 14.89 103.602 15.17C103.102 15.45 102.562 15.88 101.982 16.46C101.042 17.36 100.192 18.25 99.4317 19.13C98.6917 20.01 97.9317 20.99 97.1517 22.07C96.7117 22.69 96.3217 23.21 95.9817 23.63C95.6617 24.07 95.3817 24.36 95.1417 24.5C94.7217 24.26 94.4117 23.92 94.2117 23.48C94.0117 23.06 93.8617 22.62 93.7617 22.16C93.7617 21.78 93.8117 21.3 93.9117 20.72C94.0317 20.14 94.1817 19.5 94.3617 18.8C94.5617 18.08 94.8017 17.33 95.0817 16.55C95.3617 15.77 95.6717 14.99 96.0117 14.21C96.7717 12.45 97.4617 11.07 98.0817 10.07C98.7217 9.07 99.1217 8.53 99.2817 8.45Z" fill="#4A743C"/>
</svg>
