<svg xmlns="http://www.w3.org/2000/svg" width="61" height="47" viewBox="0 0 61 47" fill="none">
<path d="M54.4652 0H5.63434C2.52254 0 0 2.57884 0 5.76008V40.3206C0 43.5018 2.52254 46.0807 5.63434 46.0807H54.4652C57.577 46.0807 60.0996 43.5018 60.0996 40.3206V5.76008C60.0996 2.57884 57.577 0 54.4652 0ZM54.4652 5.76008V10.6568C51.8333 12.8479 47.6374 16.255 38.6672 23.4357C36.6903 25.0254 32.7745 28.8445 30.0498 28.7999C27.3256 28.8449 23.4084 25.0248 21.4324 23.4357C12.4636 16.256 8.26663 12.8482 5.63434 10.6568V5.76008H54.4652ZM5.63434 40.3206V18.048C8.32403 20.2382 12.1384 23.3115 17.9522 27.9657C20.5178 30.0303 25.0108 34.5881 30.0498 34.5604C35.064 34.5881 39.5001 30.0964 42.1464 27.9666C47.9601 23.3126 51.7754 20.2384 54.4652 18.0481V40.3206H5.63434Z" fill="#4A743C"/>
</svg>