<svg xmlns="http://www.w3.org/2000/svg" width="47" height="48" viewBox="0 0 47 48" fill="none">
<path d="M39.6196 0.596132L2.15737 22.6821C-0.940471 24.5142 -0.643294 29.2002 2.67067 30.5903L12.9638 34.9449V42.715C12.9638 46.9868 18.2949 48.7452 20.7624 45.3481L24.7067 39.9071L34.7837 44.1604C35.315 44.3814 35.8733 44.4919 36.4317 44.4919C37.1701 44.4919 37.8995 44.2985 38.5569 43.9211C39.7096 43.2582 40.5021 42.0798 40.7092 40.7449L46.0584 5.09802C46.6077 1.40629 42.7354 -1.23593 39.6196 0.596132ZM17.2863 42.715V36.7678L20.5823 38.1579L17.2863 42.715ZM36.4317 40.0728L22.5815 34.2268L35.207 15.6024C36.1705 14.1755 34.3514 12.5183 33.0727 13.6507L14.0264 30.6179L4.31865 26.5119L41.7808 4.41675L36.4317 40.0728Z" fill="#4A743C"/>
</svg>
