<svg xmlns="http://www.w3.org/2000/svg" width="61" height="47" viewBox="0 0 61 47" fill="none">
<path d="M54.4652 0H5.63434C2.52254 0 0 2.57884 0 5.76008V40.3206C0 43.5018 2.52254 46.0807 5.63434 46.0807H54.4652C57.577 46.0807 60.0996 43.5018 60.0996 40.3206V5.76008C60.0996 2.57884 57.577 0 54.4652 0ZM53.761 40.3206H6.33863C6.15184 40.3206 5.9727 40.2447 5.84062 40.1097C5.70854 39.9747 5.63434 39.7915 5.63434 39.6006V6.48009C5.63434 6.28914 5.70854 6.106 5.84062 5.97097C5.9727 5.83594 6.15184 5.76008 6.33863 5.76008H53.761C53.9477 5.76008 54.1269 5.83594 54.259 5.97097C54.391 6.106 54.4652 6.28914 54.4652 6.48009V39.6006C54.4652 39.7915 54.391 39.9747 54.259 40.1097C54.1269 40.2447 53.9477 40.3206 53.761 40.3206ZM15.0249 10.5602C12.4318 10.5602 10.3296 12.7093 10.3296 15.3602C10.3296 18.0112 12.4318 20.1603 15.0249 20.1603C17.618 20.1603 19.7202 18.0112 19.7202 15.3602C19.7202 12.7093 17.618 10.5602 15.0249 10.5602ZM11.2687 34.5605H48.8309V24.9604L38.5582 14.4584C38.0082 13.8961 37.1163 13.8961 36.5661 14.4584L22.5373 28.8004L17.899 24.0585C17.3489 23.4962 16.4571 23.4962 15.9069 24.0585L11.2687 28.8004V34.5605Z" fill="#4A743C"/>
</svg>